<?xml version="1.0" encoding="UTF-8"?><svg id="Warstwa_2" xmlns="http://www.w3.org/2000/svg" viewBox="0 0 159.56 159.56"><defs><style>.cls-1{fill:#fff;}.cls-2{fill:#215e98;}</style></defs><g id="Autostrada"><circle class="cls-2" cx="79.78" cy="79.78" r="79.78"/><g><path class="cls-1" d="M11.23,72.73c1,.15,1.98,.36,2.97,.52,1.17,.19,2.32,.51,3.52,.42,.64-.05,1.23-.23,1.72-.71,.94-.92,1.2-2.07,1.24-3.31,.07-1.62-.91-2.68-2.2-3.09-.67-.21-1.35-.32-2.04-.45-1.23-.22-2.47-.46-3.71-.65-.3-.05-.68-.28-.87-.12-.18,.15-.14,.57-.2,.88,0,.03-.04,.05-.05,.08-.01,.15-.05,.29,.21,.32,.47,.06,.94,.19,1.41,.27,1.45,.26,2.9,.48,4.34,.78,.57,.12,1.15,.31,1.57,.82,.46,.57,.28,2.36-.08,2.91-.42,.65-.96,.98-1.76,.93-.53-.03-1.05-.1-1.58-.2-1.57-.28-3.14-.55-4.71-.83-.18-.03-.27-.05-.27,.17,0,.17-.08,.33-.11,.5-.08,.67-.09,.64,.57,.74Z"/><path class="cls-1" d="M19.44,81.49c.19,.02,.3-.02,.29-.25-.02-.28,0-.57,0-.86,0-.15-.04-.25-.21-.23-.51,.07-1-.12-1.5-.1-.71,.02-1.43,0-2.14,0-.14,0-.35,.08-.34-.19,.05-1.1-.12-2.22,.09-3.31,.14-.73,.03-.87-.7-.87-.08,0-.16,0-.24,0-.22-.03-.31,.05-.3,.29,.02,.49,0,.98,0,1.67,.02,.59-.01,1.38-.08,2.17-.02,.26-.14,.26-.33,.26-.68,.02-1.35-.17-2.03-.09-.33,.04-.42-.06-.43-.41-.03-1.27,.16-2.52,.11-3.79-.03-.89,0-.88-.92-.86-.23,0-.33,.04-.33,.31-.03,1.9,.1,3.8-.09,5.7-.03,.31,.07,.39,.39,.4,1.06,.02,2.11-.01,3.17,.06,1.86,.13,3.74-.08,5.6,.12Z"/><path class="cls-1" d="M12.61,63.11c1.47,.41,2.92,.87,4.38,1.32,1.3,.4,2.59,.8,3.88,1.2,.13,.04,.35,.11,.36-.05,.02-.4,.38-.72,.24-1.14,0-.02-.09,0-.14-.01-.62-.19-1.24-.38-1.85-.57-1.58-.48-3.17-.97-4.81-1.47,1.02-.32,1.97-.62,2.93-.9,1.5-.45,3.01-.91,4.52-1.34,.76-.21,1.15-.61,1.22-1.39,.01-.17-.09-.2-.22-.24-2.62-.79-5.25-1.59-7.87-2.39-.29-.09-.65-.32-.86-.23-.18,.08-.16,.56-.3,.82-.16,.31,0,.39,.22,.46,.62,.19,1.24,.38,1.85,.57,1.53,.46,3.05,.92,4.58,1.39-.04,.09-.09,.12-.18,.15-.62,.18-1.23,.38-1.85,.56-1.64,.48-3.28,.95-4.92,1.45-.65,.2-1.41,.29-1.5,1.22-.03,.3-.07,.48,.32,.59Z"/><path class="cls-1" d="M17.2,54.32c2.1,.98,4.2,1.96,6.29,2.95,.26,.12,.39,.12,.53-.17,.45-1,.95-1.98,1.38-2.99,.25-.59,.51-1.21,.42-1.88,.12-.97-.31-1.76-.93-2.4-1.33-1.37-2.95-2.17-4.91-2.07-.99,.05-1.86,.49-2.42,1.31-.9,1.3-1.46,2.79-2.12,4.22-.06,.14-.06,.21,.09,.28,.56,.25,1.13,.5,1.69,.76Zm.78-3.66c.66-1.6,2.11-1.82,3.39-1.41,.97,.31,1.85,.78,2.6,1.53,.74,.74,.77,1.59,.48,2.47-.24,.74-.65,1.43-.97,2.15-.12,.26-.24,.3-.5,.18-1.66-.8-3.32-1.58-4.99-2.36-.33-.16-.68-.3-1-.44,.28-.75,.7-1.41,.99-2.12Z"/><path class="cls-1" d="M25.36,48.19c.49,.7,.96,1.4,1.45,2.1,.06,.09,.15,.35,.33,.09,.2-.29,.4-.59,.61-.87,.07-.09,.03-.12-.02-.19-.52-.71-1.04-1.43-1.57-2.13-.12-.15-.13-.21-.01-.39,.61-.89,1.19-1.8,1.79-2.71,.16-.25,.37-.28,.65-.21,.78,.19,1.56,.37,2.35,.53,.06,.01,.15,.15,.26-.03,.22-.39,.5-.74,.78-1.15-.7-.14-1.33-.29-1.97-.42-2.27-.46-4.55-.91-6.8-1.43-1.12-.26-1.24-.22-1.8,.66-.12,.19-.13,.31,.03,.53,1.33,1.87,2.63,3.75,3.94,5.63Zm-.99-5.3c.78,.19,1.55,.4,2.33,.56,.32,.07,.25,.21,.14,.37-.44,.67-.88,1.34-1.33,2-.11,.16-.18,.21-.34-.01-.62-.89-1.28-1.75-1.9-2.63-.16-.23-.42-.38-.58-.7,.6,.15,1.14,.28,1.68,.41Z"/><path class="cls-1" d="M16.66,97.85c.28,.86,.55,1.74,.88,2.58,.35,.9,1.25,1.91,2.62,1.87,1.5-.04,3.28-1.34,2.66-3.48-.4-1.36-.88-2.69-1.27-4.06-.09-.32-.23-.26-.41-.2-1.45,.47-2.9,.95-4.35,1.42-1.25,.4-2.49,.83-3.75,1.18-.48,.14-.57,.34-.37,.75,.11,.22,.18,.46,.21,.7,.54-.16,1.07-.32,1.59-.48,.54-.17,1.1-.32,1.62-.54,.35-.15,.46-.05,.56,.26Zm3.8-1.68c.18-.06,.25-.12,.34,.14,.32,.95,.65,1.89,.89,2.86,.2,.83-.32,1.63-1.46,1.76-.98,.11-1.41-.3-1.84-1.58-.25-.76-.5-1.52-.74-2.26,.95-.31,1.88-.61,2.82-.93Z"/><path class="cls-1" d="M32.12,116.16c-.21-.24-.46-.43-.59-.7-.16-.31-.34-.24-.57-.07-2.03,1.59-4.07,3.17-6.09,4.77-.29,.23-.71,.41-.85,.7-.18,.38,.4,.57,.5,.93,.01,.04,.06,.07,.09,.11,.07,.09,.13,.09,.22,0,.57-.55,1.24-.99,1.86-1.48,1.11-.88,2.23-1.74,3.34-2.61,.7-.55,1.39-1.1,2.09-1.65Z"/><path class="cls-1" d="M39.65,129.74c-.34-.24-.59-.57-.89-.85-.95-.84-1.9-1.68-2.85-2.52,.65-.72,1.25-1.4,1.86-2.08,1.37,1.23,2.73,2.45,4.12,3.7,.1-.26,.31-.41,.5-.57,.25-.21,.21-.35-.01-.55-.81-.73-1.57-1.5-2.41-2.19-.39-.32-.74-.68-1.12-1-.52-.44-1.09-.83-1.59-1.29-.64-.59-1.16-1.31-1.73-1.98-.72-.85-1.46-1.67-2.14-2.55-.65-.82-.61-.83-1.4-.19-.17,.13-.16,.16-.04,.3,.62,.72,1.24,1.45,1.85,2.16-.09,.07-.19,.15-.28,.23-.69,.59-1.37,1.19-2.06,1.77-1.12,.94-2.27,1.86-3.38,2.82-.61,.53-.57,.54,0,1.16,.24,.26,.4,.24,.64,0,.26-.27,.55-.51,.84-.75,1.16-.97,2.32-1.95,3.48-2.91,.48-.4,.97-.78,1.45-1.17,.1-.09,.16-.17,.28,0,.62,.78,1.26,1.54,1.88,2.29-.83,.94-1.66,1.88-2.5,2.82-.88,.98-1.76,1.97-2.66,2.93-.2,.22-.1,.31,.05,.45,.76,.66,1.52,1.31,2.26,1.98,.84,.76,1.67,1.54,2.5,2.31,.09,.08,.17,.22,.31,.07,.21-.25,.51-.47,.61-.76,.07-.22-.3-.35-.49-.5-.13-.11-.24-.25-.37-.37-.49-.44-1-.86-1.48-1.3-.56-.51-1.1-1.04-1.66-1.56-.09-.09-.18-.14-.04-.29,.58-.62,1.15-1.25,1.7-1.89,.22-.25,.37-.17,.56,.01,1.16,1.06,2.32,2.12,3.5,3.2,.21-.22,.42-.43,.63-.65,.07-.08,.19-.21,.07-.29Z"/><path class="cls-1" d="M46.05,137.22c-.19-.2-.37-.42-.55-.64-.15-.19-.25-.17-.45-.02-.65,.49-1.35,.79-2.23,.62-1.37-.26-2.69-1.93-2.16-3.48,.32-.93,.77-1.76,1.45-2.46,.58-.6,1.26-1.08,2.13-1.12,1.73-.09,2.95,1.13,2.95,2.86,0,.29-.3,.61-.07,.83,.22,.21,.58,.27,.87,.4,.03,.01,.06,0,.09,.03,.15,.1,.21,0,.22-.11,.04-.43,.29-.83,.22-1.28-.02-.2-.01-.41-.06-.61-.24-1.17-.94-2.01-1.94-2.6-1.43-.84-2.87-.97-4.36-.1-1.04,.61-1.76,1.49-2.28,2.52-.56,1.11-.87,2.3-.43,3.54,.4,1.14,1.26,1.89,2.26,2.45,1.52,.86,3.09,.45,4.28-.51,.1-.08,.18-.17,.05-.31Z"/><path class="cls-1" d="M56.02,134.99c-.32-.17-.42-.08-.58,.22-.47,.94-.99,1.85-1.49,2.78-.07,.14-.08,.21-.28,.1-1.23-.68-2.48-1.33-3.73-1.98-.23-.12-.26-.19-.13-.42,.47-.84,.92-1.69,1.37-2.53,.09-.16,.16-.33,.27-.55-.16-.21-.45-.26-.67-.38-.16-.08-.31-.28-.53-.17-.03,.02-.03,.08-.06,.12-1.29,2.42-2.58,4.83-3.86,7.25-.44,.83-.41,.81,.41,1.26,.32,.18,.4,.08,.54-.18,.55-1.07,1.13-2.13,1.68-3.21,.12-.24,.23-.28,.46-.16,1.23,.66,2.46,1.31,3.69,1.96,.15,.08,.23,.16,.14,.32-.54,.92-1,1.88-1.51,2.82-.49,.91-.52,.88,.41,1.34,.19,.09,.28,.14,.41-.11,1.28-2.44,2.59-4.86,3.88-7.29,.42-.79,.4-.79-.41-1.21Z"/><path class="cls-1" d="M30.38,41.34c.67,.28,1.39,.4,2.14,.25,.96-.19,1.7-.72,2.35-1.41,1.12-1.19,1.53-2.74,.78-4.32-.38-.8-.37-.8-1.09-.33-.02,.02-.06,.01-.09,.03-.29,.16-.39,.32-.14,.66,.33,.45,.5,1,.45,1.58-.07,.86-.51,1.55-1.19,2.03-.56,.4-1.17,.67-1.95,.52-.88-.17-1.59-.57-2.24-1.15-.96-.87-1.78-1.8-1.58-3.25,.12-.89,.58-1.56,1.32-2.04,.68-.44,1.42-.5,2.19-.2,.08,.03,.28,.29,.42,0,.14-.28,.31-.54,.46-.8,.1-.17,.05-.25-.14-.33-.9-.4-1.81-.46-2.74-.1-1.55,.59-2.9,2.57-2.74,4.13-.07,.55,.09,1.1,.34,1.63,.72,1.51,1.94,2.48,3.44,3.11Z"/><path class="cls-1" d="M23.8,111.24c1.43-.86,2.27-2.08,2.32-3.42,0-1.72-.52-2.87-1.46-3.78-1.22-1.19-2.73-1.42-4.32-.97-1.13,.32-2.15,.89-2.92,1.83-.71,.85-1.09,1.83-1.01,2.91,.1,1.31,.64,2.45,1.65,3.34,.78,.69,1.72,1.02,2.72,1.02,1.08,0,2.09-.37,3.02-.93Zm-5.64-1.69c-.7-1.12-.75-2.24-.09-3.38,.48-.83,1.29-1.25,2.13-1.59,.55-.22,1.13-.42,1.75-.4,1.52,.02,2.61,1.11,2.92,2.5,.41,1.82-.97,3.11-2.3,3.7-.51,.23-1.05,.38-1.59,.46-.92,.14-2.23-.34-2.82-1.29Z"/><path class="cls-1" d="M64.29,138.01c-.08-.26-.55-.2-.8-.37-.26-.17-.35-.08-.44,.19-.61,1.81-1.23,3.62-1.86,5.42-.11,.32-.13,.7-.45,.96,0-.11,0-.2-.02-.27-.62-2.32-1.27-4.64-1.83-6.97-.17-.71-.41-1.18-1.17-1.34-.3-.06-.42-.09-.53,.24-.87,2.58-1.77,5.16-2.65,7.74-.28,.82-.27,.8,.61,1.11,.31,.11,.36,.03,.45-.25,.26-.82,.56-1.63,.85-2.45,.46-1.32,.91-2.64,1.37-3.97,.02,.04,.04,.05,.04,.06,.7,2.65,1.41,5.3,2.1,7.96,.05,.19,.1,.31,.28,.38,.25,.09,.5,.16,.74,.27,.26,.13,.35,.06,.43-.21,.2-.65,.44-1.28,.66-1.92,.66-1.91,1.33-3.81,1.99-5.72,.1-.29,.32-.63,.24-.87Z"/><path class="cls-1" d="M22.15,116.19c-.19-.32-.57-.62-.56-.93,0-.4,.55-.48,.87-.68,1.72-1.09,3.46-2.16,5.19-3.25,.27-.17,.74-.28,.72-.58-.02-.33-.34-.64-.53-.96-.02-.03-.06-.06-.1-.09-.06,.05-.1,.1-.15,.13-2.21,1.39-4.43,2.77-6.64,4.16-.35,.22-.89,.34-1.01,.69-.12,.4,.35,.73,.57,1.09,.75,1.23,1.52,2.44,2.28,3.66,.08,.12,.12,.27,.31,.14,.22-.14,.45-.26,.67-.4,.11-.07,.14-.13,.04-.29-.57-.88-1.1-1.79-1.65-2.68Z"/><path class="cls-1" d="M134.12,41.96c-.99-.07-1.99-.11-2.98-.15-.66-.02-1.34,.05-1.98-.09-.92-.2-1.69-.05-2.34,.64,.17,.24,.35,.5,.54,.76,1.12,1.54,2.24,3.09,3.38,4.62,.45,.61,.59,.6,1.17,.07,.14-.12,.2-.2,.04-.4-.59-.76-1.13-1.55-1.69-2.33-.52-.72-1.04-1.43-1.56-2.15,.38-.14,.67,.06,.99,.06,1.13-.03,2.26,.09,3.39,.17,1.46,.1,2.93,.14,4.39,.2,.52,.02,.78-.4,1.14-.64,.17-.11-.04-.17-.09-.24-1.15-1.58-2.31-3.15-3.44-4.74-.24-.34-.42-.59-.79-.14-.13,.16-.36,.23-.53,.34,1.01,1.39,2.01,2.77,3.05,4.2-.94-.21-1.82-.12-2.69-.17Z"/><path class="cls-1" d="M123.67,32.88c-.81,.88-1.22,1.92-1.3,3.1,.05,.55,.15,1.07,.35,1.58,.36,.91,.99,1.58,1.77,2.13,1.14,.8,2.41,.97,3.73,.52,1.27-.43,2.24-1.29,2.96-2.37,.75-1.13,1.08-2.38,.59-3.74-.31-.85-.81-1.54-1.48-2.15-1.09-.98-2.84-1.37-4.25-.8-.94,.38-1.7,.99-2.37,1.73Zm2.95-.55c.98-.41,1.9-.21,2.74,.33,.94,.61,1.42,1.59,1.35,2.57-.05,1.17-.62,2.06-1.49,2.82-.56,.49-1.14,.86-1.88,1.05-1.61,.41-3.22-.68-3.61-2.26-.28-1.14,.1-2.09,.85-2.95,.57-.66,1.22-1.21,2.04-1.55Z"/><path class="cls-1" d="M108.13,17.51c1.41,.72,2.81,1.44,4.26,2.19-.19,.11-.35,.21-.51,.28-2.3,1.03-4.58,2.07-6.9,3.05-.53,.23-.87,.52-1.13,1.03-.18,.36-.1,.45,.18,.59,1.85,.93,3.7,1.87,5.55,2.81,.71,.36,.7,.35,1.06-.33,.17-.32,.09-.43-.22-.58-1.26-.6-2.5-1.24-3.74-1.88-.36-.18-.71-.39-1.08-.6,1-.44,1.94-.85,2.89-1.27,1.34-.59,2.69-1.15,4.02-1.77,.68-.32,1.48-.49,1.77-1.35,.08-.25,.03-.33-.17-.44-1.66-.84-3.31-1.68-4.97-2.52-.25-.13-.59-.41-.73-.33-.21,.12-.27,.5-.42,.75-.12,.2-.05,.28,.13,.37Z"/><path class="cls-1" d="M38.94,32.96c.3,.48,.2,1.13-.14,1.48-.7,.74-1.66,.52-2.36-.39-.82,1.02-1.16,.76,.04,1.69,.47,.36,1.03,.59,1.69,.39,.62-.19,1.11-.52,1.55-.99,.88-.92,.94-2.06,.22-3.06-.36-.51-.76-.99-1.17-1.46-1.15-1.32-2.32-2.64-3.47-3.96-.09-.1-.09-.15-.24-.06-.33,.21-.55,.51-.86,.78,1.13,1.29,2.27,2.55,3.37,3.85,.47,.55,.97,1.09,1.36,1.71Z"/><path class="cls-1" d="M141.59,71.14c-.24-.08-.43-.01-.62-.08-.48-.17-.81-.67-.76-1.45,.03-.47,.3-.8,.85-.98q.74-.24,.49-.98s-.02-.09-.04-.13c-.05-.18-.17-.25-.35-.21-.71,.17-1.37,.41-1.81,1.05-.61,.9-.46,2.07,.09,2.98,.34,.56,.8,.92,1.51,1.05,.81,.15,1.56-.04,2.32-.15,1.73-.26,3.44-.62,5.17-.92,.36-.06,.52-.11,.38-.56-.23-.74-.19-.79-.96-.68-1.19,.18-2.38,.42-3.57,.62-.92,.16-1.84,.31-2.7,.45Z"/><path class="cls-1" d="M138.53,58.85c-1.17,1.12-1.6,2.52-1.23,4.13,.21,.94,.67,1.75,1.36,2.39,.81,.74,1.78,1.19,2.82,1.07,1.5,0,2.44-.28,3.6-1.09,2.32-1.61,2.34-4.64,.65-6.59-.88-1.02-2.04-1.46-3.43-1.39-1.44,.08-2.73,.49-3.76,1.49Zm7.02,1.9c.11,.3,.22,.61,.2,.92-.04,1.32-.71,2.3-1.94,2.89-.79,.38-1.62,.63-2.45,.6-1.43-.06-2.49-.72-2.95-2.47-.36-1.39,.57-2.91,1.86-3.48,.79-.35,1.63-.57,2.47-.56,1.17,.02,2.29,.58,2.81,2.1Z"/><path class="cls-1" d="M114.5,30.65c.32,.19,.52,.56,.92,.64,.01,0,.03-.09,.06-.12,.73-.85,1.4-1.75,2.07-2.64,.2-.27,.37-.56,.74-.15,.11,.12,.3,.23,.44,.34,.49,.39,.98,.76,1.12,1.47,.17,.86-.05,1.69-.06,2.53,0,.54-.12,1.08-.16,1.63-.02,.26,.1,.42,.27,.56,.3,.24,.62,.47,1.02,.77,.04-1.83,.6-3.57,.03-5.37,1.53,.8,2.61,.5,3.46-.45,.68-.76,.83-2.06,.31-2.8-.44-.63-1.02-1.11-1.6-1.58-.98-.79-1.99-1.53-2.99-2.3-.14,.13-.26,.3-.38,.46-1.74,2.23-3.49,4.45-5.24,6.67-.1,.13-.19,.23-.01,.34Zm4.35-3.76c.51-.6,.97-1.25,1.45-1.88,.07-.09,.15-.21,.31-.08,.9,.75,1.94,1.35,2.71,2.25,.38,.44,.52,.97,.23,1.54-.27,.51-.7,.77-1.17,.81-.73-.03-1.22-.37-1.69-.71-.61-.43-1.18-.91-1.77-1.38-.2-.16-.31-.29-.08-.56Z"/><path class="cls-1" d="M50.42,21.23c.68,1.52,1.35,3.05,2.03,4.57,.04,.1,.07,.28,.25,.21,.33-.13,.65-.28,.97-.44,.14-.07,.01-.17-.02-.23-.68-1.52-1.36-3.04-2.04-4.56-.25-.55-.49-1.11-.73-1.68,.08-.02,.12-.04,.14-.03,2.27,1.44,4.55,2.87,6.82,4.31,.16,.1,.31,.22,.55,.09,.31-.16,.83-.21,.91-.46,.08-.24-.24-.63-.39-.95-.03-.06-.05-.11-.08-.17-.99-2.23-1.97-4.46-2.97-6.68-.36-.8-.44-.79-1.23-.35-.21,.12-.21,.2-.12,.39,.38,.83,.75,1.66,1.11,2.49,.53,1.2,1.05,2.4,1.57,3.6,.09,.03,.1,.09,.06,.17-.04-.03-.09-.06-.13-.09-.11-.05-.23-.1-.33-.17-1.95-1.23-3.89-2.47-5.84-3.69-.51-.32-.95-.84-1.68-.32-.49,.35-.53,.27-.27,.83,.48,1.05,.95,2.11,1.42,3.17Z"/><path class="cls-1" d="M99.76,23.24c1.64,.6,3.04,.3,4.3-.98,.2-.2,.49-.45,.46-.72-.02-.16-.39-.29-.6-.43-.09-.06-.2-.1-.27-.18-.15-.17-.21-.09-.31,.05-.25,.38-.55,.71-.95,.96-1.69,1.07-4.36-.32-4.12-2.52,0-.94,.18-1.54,.74-2.7,.51-1.06,1.58-2,3.18-1.68,1.22,.24,1.87,.84,2.08,2.08,.13,.76,.17,.79,.98,.79,.06,0,.13,0,.19,0,.22,.03,.27-.07,.26-.27-.02-.7-.16-1.37-.56-1.94-1.04-1.46-2.48-2.02-4.26-1.8-1.49,.18-2.44,1.06-3.14,2.29-.41,.72-.63,1.49-.75,2.32-.13,.89-.06,1.73,.28,2.56,.46,1.14,1.38,1.76,2.48,2.17Z"/><path class="cls-1" d="M39.98,28.02c.44,1.76,.88,3.53,1.33,5.31,.35-.19,.68-.42,1-.66,.15-.11,.14-.2,.1-.32-.2-.74-.38-1.49-.63-2.22-.12-.35-.02-.53,.23-.71,.67-.47,1.39-.88,2.01-1.41,.59-.5,1.08-.54,1.62,.01,.16,.16,.37,.28,.56,.42q1.03,.79,2.08,.04c.07-.05,.2-.03,.22-.19-1.04-.66-2.07-1.32-3.1-1.98-1.74-1.13-3.47-2.26-5.21-3.39-.08-.05-.2-.18-.32-.04-.23,.28-.57,.43-.86,.64-.13,.1-.14,.15-.11,.3,.36,1.4,.71,2.81,1.07,4.22Zm.17-3.79s.09,.06,.13,.09c1.18,.83,2.35,1.66,3.56,2.51-.74,.51-1.49,.99-2.2,1.53-.29,.22-.33,0-.37-.14-.21-.76-.38-1.53-.59-2.28-.14-.52-.32-1.03-.48-1.54-.09-.03-.1-.09-.06-.17Z"/><path class="cls-1" d="M60.91,22.39c-.04-.65,.11-1.28,.12-1.93,0-.33-.05-.78,.49-.91,1-.24,2-.52,2.99-.82,.25-.08,.36,.02,.47,.16,.31,.42,.61,.85,.92,1.28,.63,.87,.7,.91,1.36,.7,.82-.26,.79-.24,.23-.92-.91-1.1-1.78-2.24-2.67-3.36-.9-1.14-1.83-2.24-2.67-3.42-.37-.53-.74-.45-1.19-.29-.04,.02-.08,.07-.12,.07-.46-.02-.48,.3-.5,.63-.03,.56-.04,1.13-.1,1.69-.15,1.41-.28,2.83-.39,4.25-.03,.42-.04,.85-.1,1.26-.09,.75-.2,1.49-.17,2.29,.38-.11,.68-.25,.99-.29,.28-.04,.35-.15,.33-.4Zm.29-4.25c.07-1.33,.28-2.65,.22-3.99,.79,1.07,1.56,2.12,2.36,3.15,.31,.4,.31,.38-.18,.53-.68,.2-1.37,.38-2.04,.59-.38,.12-.37-.02-.35-.28Z"/><path class="cls-1" d="M88.51,20.39c.2,.02,.4,.06,.6,.09,.92,.14,1.84,.28,2.76,.42,1.06,.17,2.11,.35,3.17,.53,.14,.02,.3,.03,.28-.2-.02-.24,.1-.45,.11-.69,.01-.24-.06-.32-.26-.34-1.52-.22-3.04-.45-4.56-.67-.79-.12-.78-.12-.63-.96,.11-.63,.23-1.26,.28-1.89,.02-.32,.17-.33,.39-.3,1.29,.21,2.58,.4,3.85,.64,.91,.18,.95,.17,1.03-.77,.02-.27-.08-.32-.3-.35-1.29-.19-2.58-.38-3.87-.57-.85-.13-.85-.14-.71-.97,.08-.49,.14-.99,.19-1.48,.03-.35,.19-.45,.53-.39,.72,.13,1.43,.25,2.15,.37,.93,.15,1.87,.29,2.82,.44,.07-.32,.14-.65,.22-.98,.04-.16-.02-.21-.19-.23-.57-.08-1.13-.19-1.7-.28-1.55-.24-3.1-.45-4.65-.71-.2-.03-.2,0-.22,.15-.15,.95-.32,1.89-.47,2.84-.15,.92-.28,1.84-.43,2.76-.17,1.09-.36,2.17-.52,3.26-.02,.11-.06,.26,.15,.28Z"/><path class="cls-1" d="M72.23,16.51c.08,.84,.09,1.69,.2,2.53,.04,.32-.16,.73,.11,.93,.26,.19,.63-.1,.96-.06,.21,.02,.27-.06,.27-.27,0-.58-.09-1.16-.12-1.74-.03-.53,.04-1.1-.1-1.59-.17-.57,.15-.57,.49-.59,.44-.02,.89,.01,1.33-.01,.44-.02,.78,.16,1.09,.45,.84,.8,1.48,1.77,2.18,2.69,.21,.27,.29,.74,.79,.68,.44-.05,.88,.04,1.31,.06,1.57,.09,3.13,.24,4.7,.33,.68,.04,1.38,.02,2.05,.17,.09,.02,.25,.07,.28-.09,.05-.32,.07-.65,.1-.98,.02-.17-.11-.16-.22-.16-1.07-.06-2.14-.08-3.2-.2-.78-.09-1.58-.01-2.35-.22,.48-.77,1.17-1.33,1.76-1.97,1.39-1.51,2.81-2.99,4.19-4.5,.15-.17,.29-1.02,.19-1.21-.04-.09-.12-.08-.2-.09-.81-.06-1.62-.14-2.44-.19-1.18-.07-2.37-.05-3.53-.23-.59-.09-.55,.2-.6,.54-.02,.12,0,.25,0,.38-.02,.22,.08,.26,.27,.27,1.07,.03,2.13,.15,3.2,.21,.52,.03,1.05,.03,1.56,.09,.04,.16-.07,.21-.13,.27-.72,.79-1.44,1.58-2.17,2.36-1.09,1.16-2.18,2.32-3.29,3.47-.29,.3-.61,.57-.47,1.12-1.09-1.25-1.75-2.77-3.23-3.58,.29,.03,.52-.15,.75-.25,.79-.36,1.36-.96,1.49-1.83,.14-.91-.09-1.75-.83-2.39-.79-.68-1.73-.68-2.66-.6-.68,.06-1.37,.1-2.06,.15-.7,.05-1.4,.19-2.06,.11,0,.47-.05,.92,0,1.35,.2,1.52,.22,3.06,.36,4.59Zm1.19-4.9c1.05-.05,2.09-.14,3.14-.18,.76-.02,1.3,.33,1.5,.93,.36,1.1-.31,1.87-1.55,2.02-1.02,.12-2.05,.18-3.1,.21-.05-.9-.07-1.79-.2-2.67-.02-.15-.04-.3,.22-.31Z"/><path class="cls-1" d="M132.29,50.11c-.08,.07-.23,.13-.13,.3,.16,.3,.3,.61,.45,.92,.07,.13,.18,.15,.32,.12,1.79-.41,3.58-.82,5.37-1.22,.78-.17,1.56-.33,2.44-.52-1.1,1.21-2.24,2.2-3.34,3.24-.82,.78-1.58,1.63-2.48,2.33-.19,.15-.07,.28,.02,.39,.22,.26,.22,.67,.57,.83,0,0,.02-.03,.03-.03,1.15-.26,2.29-.51,3.44-.76,1.51-.33,3.01-.69,4.52-.99,1.48-.3,1.48-.27,.86-1.35-.09-.16-.13-.16-.3-.11-1.85,.48-3.71,.94-5.56,1.41-.58,.15-1.17,.3-1.75,.45,.52-.52,1.03-1,1.55-1.47,1.36-1.23,2.68-2.5,3.97-3.79,.12-.12,.17-.21,.04-.35-.3-.32-.3-.84-.71-1.09-.03-.02-.09,0-.14,.01-.96,.21-1.93,.43-2.89,.63-1.57,.33-3.15,.67-4.8,1.1,.77-.66,1.46-1.24,2.13-1.84,1.1-.99,2.26-1.93,3.37-2.92,.56-.5,.54-.52,.19-1.2-.25-.5-.26-.51-.68-.12-1.41,1.31-2.82,2.61-4.22,3.93-.75,.71-1.5,1.43-2.3,2.11Z"/><path class="cls-1" d="M95.48,138.21c-1.19-.38-2.34-.25-3.44,.28-1.12,.54-1.92,1.38-2.27,2.62-.22,.8-.21,1.6-.08,2.41,.17,1.09,.6,2.05,1.36,2.85,1.1,1.15,2.47,1.58,4.03,1.27,.9-.18,1.71-.58,2.35-1.23,.87-.87,1.31-1.95,1.21-3.23,.1-.85-.15-1.66-.49-2.42-.53-1.19-1.37-2.14-2.67-2.55Zm-.85,8.3c-1.55,.16-2.65-.56-3.24-2-.38-.93-.58-1.92-.38-2.96,.25-1.27,1.06-1.95,2.23-2.29,1.36-.39,2.81,.28,3.46,1.6,.39,.8,.63,1.61,.63,2.77,.06,1.52-1.11,2.71-2.7,2.88Z"/><path class="cls-1" d="M144.44,96.66c-2.15-.65-4.31-1.26-6.47-1.89-.09,.33-.13,.67-.27,.98-.12,.27,0,.36,.19,.41,1.15,.33,2.32,.63,3.47,.98,1.1,.33,2.23,.59,3.3,1.02,.89,.35,.8,1.5,.39,2-.41,.5-.96,.46-1.51,.35-.2-.04-.48-.06-.44,.15,.06,.35-.41,.81,.06,1.02,.51,.23,1.15,.25,1.67,.08,1.51-.49,2.05-2.36,1.57-3.61-.34-.89-1.14-1.25-1.96-1.5Z"/><path class="cls-1" d="M106.58,142.59c-1.7,.7-3.42,1.38-5.22,2.11,.17-.2,.13-.38,.18-.53,.69-2.25,1.4-4.5,2.08-6.76,.22-.72,.67-1.43,.11-2.22-.13-.19-.15-.24-.36-.15-.67,.28-1.35,.52-2.02,.79-1.23,.49-2.46,1-3.68,1.5-.12,.05-.28,.07-.24,.28,.15,.78,.44,.94,1.15,.63,.03-.01,.06-.02,.09-.03,1.2-.49,2.4-.98,3.59-1.47,.09-.04,.18-.08,.26,0,.08,.08-.03,.14-.05,.2-.1,.32-.2,.65-.3,.97-.66,2.15-1.32,4.3-1.99,6.45-.18,.57-.27,1.13,.07,1.68,.13,.22,.2,.31,.49,.19,2.17-.9,4.36-1.77,6.53-2.64-.11-.28-.24-.56-.33-.86-.07-.23-.16-.23-.37-.14Z"/><path class="cls-1" d="M86.12,139.46c-1.35,.12-2.7,.26-4.06,.36-.3,.02-.31,.15-.28,.35,.12,.66,.13,1.34,.19,2,.07,.79,.12,1.59,.2,2.39,.14,1.35,.27,2.7,.35,4.06,.03,.43,.06,.7,.52,.55,.14,0,.22,0,.29,0,.42,.06,.56-.11,.54-.53-.02-.53-.09-1.07-.13-1.6-.03-.39,0-.78-.09-1.17-.11-.52-.07-.6,.46-.61,.94-.03,1.87-.11,2.79-.29,2-.38,2.76-2.26,2.04-3.92-.5-1.16-1.58-1.71-2.83-1.6Zm.53,4.35c-.93,.19-1.88,.21-2.83,.31-.23,.02-.31-.04-.33-.3-.07-.88-.18-1.76-.27-2.65-.01-.13-.05-.3,.18-.29,.89,.02,1.78-.16,2.45-.19,1.29,0,1.7,.3,1.94,1.24,.27,1.05-.34,1.72-1.15,1.88Z"/><path class="cls-1" d="M149.25,79.96c-.18,.05-.32,.11-.48,.11-1.95,0-3.91,.02-5.86-.02-.74-.02-1.43-.25-1.74-1.06-.28-.71-.33-1.44-.13-2.18,.19-.7,.61-1.19,1.35-1.31,.65-.1,1.3-.19,1.95-.2,1.46-.03,2.92-.01,4.38,0,.19,0,.52-.04,.49-.15-.09-.39,.07-.79-.09-1.16-.01-.03-.12-.03-.18-.03-2.21,.02-4.43-.12-6.63,.2-1.04,.15-1.83,.71-2.28,1.68-.4,.89-.35,1.84-.25,2.77,.06,.62,.31,1.19,.72,1.68,.67,.81,1.57,1.09,2.57,1.1,1.56,.01,3.11,0,4.67,0,.47,0,.94-.07,1.41-.1,.21,0,.24-.11,.22-.27-.04-.34-.07-.68-.12-1.08Z"/><path class="cls-1" d="M143.9,103.27c-.56,1.57-1.18,3.11-1.8,4.65-.03,.09-.01,.33-.3,.21-.79-.34-1.61-.62-2.41-.93-.17-.07-.28-.14-.17-.38,.23-.52,.41-1.06,.61-1.59,.35-.89,.7-1.78,1.04-2.67,.08-.2,.11-.39-.22-.39-.1,0-.22-.04-.3-.11-.44-.35-.58-.04-.71,.3-.51,1.35-1.03,2.7-1.52,4.06-.08,.23-.18,.19-.33,.14-.72-.27-1.44-.54-2.16-.82-.1-.04-.22-.05-.13-.26,.55-1.37,1.05-2.76,1.6-4.14,.32-.8,.32-.76-.48-1.13-.33-.15-.35-.06-.45,.21-.66,1.77-1.35,3.54-2.04,5.3-.27,.69-.3,.7,.38,.97,2.38,.93,4.77,1.85,7.15,2.77,.3,.12,.64,.35,.91,.29,.34-.08,.29-.56,.41-.86,.74-1.87,1.46-3.75,2.18-5.63-.25-.09-.48-.14-.68-.24-.31-.16-.44-.17-.59,.24Z"/><path class="cls-1" d="M141.22,111.55c-.75-.4-1.51-.78-2.27-1.18-1.65-.86-3.34-1.62-4.97-2.53-.84-.47-.85-.45-1.29,.38-.03,.05-.04,.13-.08,.16-.17,.15-.08,.21,.08,.29,2.64,1.35,5.29,2.72,7.93,4.07,.07,.04,.19,.19,.27,.04,.19-.34,.36-.69,.54-1.04,.02-.15-.15-.14-.22-.19Z"/><path class="cls-1" d="M135.63,114.12c-.47,.06-.94,0-1.4,.11-.68,.16-.77,.12-.94-.53-.02-.07-.02-.15-.04-.23-.32-1.49-.63-2.98-.96-4.51-.2,.3-.42,.53-.54,.81-.13,.31-.49,.53-.4,.92,.19,.86,.41,1.71,.61,2.56,.27,1.13,.53,2.27,.82,3.49-1.05-.65-2.03-1.26-3.01-1.87-.29-.18-.57-.37-.86-.55-.18,.29-.34,.58-.53,.86-.12,.17-.2,.23,.06,.39,1.61,.98,3.19,2.01,4.79,3.01,.85,.54,1.69,1.08,2.55,1.6,.13,.08,.31,.35,.5,.07,.17-.24,.32-.49,.47-.74,.09-.15,.06-.24-.1-.33-.7-.43-1.37-.9-2.09-1.3-.31-.17-.51-.39-.55-.72-.05-.45-.18-.88-.29-1.31-.05-.2-.01-.32,.25-.32,.55,.01,1.1-.06,1.65-.07,.96-.02,1.92-.13,2.88-.14,.32,0,.76,.1,1-.22,.29-.39,.5-.83,.75-1.26-.53-.03-1.01,.03-1.5,.08-1.05,.09-2.11,.09-3.15,.22Z"/><path class="cls-1" d="M112.85,135.6c-.71-1.34-1.42-2.68-2.11-4.03-.1-.19-.19-.25-.38-.12-.21,.14-.42,.28-.64,.37-.24,.1-.2,.23-.1,.4,.22,.41,.45,.81,.67,1.22,.51,.96,1.02,1.91,1.53,2.87,.33,.62,.64,1.24,1.02,1.97-.27-.13-.4-.19-.54-.26-2.11-1.14-4.24-2.24-6.32-3.43-.63-.36-1.07-.29-1.62,.05-.26,.16-.26,.27-.14,.5,.76,1.42,1.5,2.85,2.25,4.27,.32,.6,.65,1.2,.97,1.8,.34,.64,.68,1.28,1.02,1.93,.23-.13,.49-.29,.75-.4,.36-.16,.3-.29,.16-.57-1.02-1.93-2.03-3.86-3.04-5.79l-.09-.13c.08-.04,.14-.03,.17,.06,.67,.35,1.34,.7,2,1.06,1.56,.83,3.14,1.61,4.66,2.5,.56,.32,.96,.37,1.51,.06,.42-.23,.4-.42,.21-.77-.65-1.18-1.28-2.36-1.91-3.55Z"/><path class="cls-1" d="M130.52,119.7c-1,.51-1.85,1.24-2.81,1.81-.62,.37-1.15,.42-1.6,.08-.35-.26-.45-.88-.23-1.5,.23-.66,.69-1.17,1.22-1.56,.45-.34,1.04-.52,1.58-.22,.58,.33,.87,.11,1.1-.4,.02-.05,.08-.1,.13-.14,.14-.12,.09-.22-.02-.31-.52-.39-1.12-.58-1.77-.56-.65,.02-1.23,.3-1.72,.72-1.1,.92-1.97,1.96-1.83,3.54,.1,1.13,1.54,2.23,2.61,1.95,1.01-.27,1.8-.87,2.63-1.42,.58-.38,1.11-.85,1.49-.89,1.32-.08,1.8,.82,1.65,1.43-.32,1.26-1.05,2.17-2.35,2.56-.42,.12-.79,.09-1.17-.08-.69-.3-.68-.29-1.13,.33-.23,.32-.14,.51,.14,.66,.78,.42,1.57,.62,2.49,.35,1.05-.31,1.75-1.03,2.39-1.8,.6-.73,.92-1.58,.82-2.6-.17-1.68-2.02-2.76-3.61-1.94Z"/><path class="cls-1" d="M118.59,122.52c-.1,.1-.13,.19-.08,.33,.2,.56,.39,1.13,.59,1.71,.46-.38,.89-.75,.71-1.39-.15-.52-.02-1.08-.25-1.64-.33,.34-.65,.66-.97,.99Z"/><path class="cls-1" d="M113.58,129.4c-.19,.18-.27,.27-.2,.53,.31,1.11,.61,2.23,.91,3.34,.48,1.79,.94,3.57,1.43,5.36,.2,.72,.19,.67,.83,.25,.46-.3,.47-.62,.31-1.07-.22-.64-.37-1.3-.58-1.94-.07-.21,.02-.32,.16-.42,.89-.65,1.79-1.27,2.67-1.94,.2-.15,.31-.09,.47,.02,.65,.44,1.31,.87,1.97,1.31,.21,.14,.39,.19,.62-.04,.24-.25,.57-.42,.9-.66-2.61-1.61-5.22-3.17-7.77-4.83-.7-.45-1.14-.46-1.71,.1Zm4.76,3.33c-.66,.48-1.32,.96-1.97,1.46-.48,.36-.51,.36-.65-.21-.25-1.03-.52-2.05-.86-3.06-.06-.17-.13-.34-.2-.51-.09-.03-.1-.09-.06-.17,.04,.03,.09,.06,.13,.09,1.06,.71,2.13,1.42,3.19,2.13,.14,.09,.28,.18,.41,.27Z"/><path class="cls-1" d="M127.72,126.93c-1.39-1.48-2.82-2.91-4.24-4.36-.82-.83-.83-.83-1.65,.06,1.61,1.68,3.22,3.36,4.82,5.03,.03,.04,.06,.09,.09,.13-.08,.04-.14,.03-.17-.06-.64-.05-1.24-.25-1.86-.39-1.84-.4-3.69-.75-5.53-1.19-.58-.14-1.02-.15-1.37,.37-.02,.03-.04,.05-.07,.07-.35,.24-.29,.45-.01,.73,.89,.9,1.81,1.76,2.65,2.72,.91,1.03,1.96,1.93,2.87,2.97,.64,.73,.67,.69,1.35-.02,.18-.19,.15-.28-.01-.45-.99-1-1.96-2.02-2.94-3.03-.51-.52-1.03-1.03-1.55-1.55-.08-.08-.23-.14-.16-.34,.55,.13,1.1,.27,1.65,.39,1.86,.4,3.71,.8,5.57,1.2,.61,.13,1.24,.4,1.67-.35,.04-.07,.16-.09,.23-.15,.15-.11,.19-.2,.02-.36-.47-.46-.92-.95-1.37-1.44Z"/><path class="cls-1" d="M89.52,80.71c.57-.22,1.01-.63,1.11-1.27,.08-.54-.06-1.04-.52-1.38-.42-.31-.89-.48-1.43-.48-2.19,0-4.38,0-6.58,0-1.52,0-1.83-.63-1.84-1.86-.04-3.68-.02-7.37,0-11.06,0-.29,.03-.6,.12-.87,.69-1.97,2.69-3.49,4.84-3.47,1.68,.02,3.37,0,5.05,0,.57,0,1.03-.17,1.41-.6,.39-.44,.57-1.33,.29-1.89-.3-.6-.77-.95-1.48-.95-5.16,0-10.32,0-15.49,0-1.21,0-2.25,.47-3.15,1.29-1.14,1.03-1.49,2.4-1.5,3.84-.04,5.77-.01,11.53-.01,17.3s-.01,11.44,0,17.15c0,1.52,.72,2.7,1.93,3.6,.9,.67,1.92,.99,3.04,1.17,1.37,.22,2.55-.12,3.44-1.1,.95-1.05,1.47-2.38,1.48-3.82,.03-4.54,.01-9.09,.01-13.63,0-1.04,.75-1.79,1.8-1.79,2.1,0,4.19,0,6.29,0,.42,0,.81-.07,1.18-.22Z"/><path class="cls-1" d="M91.69,85.58c0,3.8,0,7.59,0,11.39,0,.74,.11,1.46,.34,2.16,.4,1.22,1.31,1.85,2.53,2.22,1.7,.52,3.39-.32,4.28-1.65,.45-.67,.54-1.42,.56-2.17,.03-1.81,.03-3.62,0-5.43,0-.44,.12-.52,.53-.5,1.84,.09,3.65-.06,5.38-.76,1.19-.48,2.16-1.24,2.92-2.28,.69-.93,.89-2.02,.89-3.12,.03-4.02,.01-8.04,0-12.05,0-.39-.02-.79-.12-1.17-.33-1.32-1.13-2.28-2.34-2.92-1.41-.76-2.96-1.01-4.52-1.12-1.23-.09-2.46-.15-3.7,.06-2.19,.38-4.12,1.21-5.57,2.96-.76,.91-1.2,1.94-1.2,3.14,0,3.75,0,7.5,0,11.24Zm5.16-14.73c1.27-.35,3.03,.29,3.8,1.38,.67,.93,.97,1.94,.96,3.09-.03,3.3-.02,6.61,0,9.91,0,1.82-1.27,3.05-2.96,3.41-1.33,.29-2.4-.2-3.41-1.05-.88-.74-1.19-1.64-1.17-2.75,.03-1.7,0-3.4,0-5.1s.04-3.46-.01-5.19c-.06-1.77,1.13-3.25,2.79-3.71Z"/><path class="cls-1" d="M66.04,138.19c-.48-.21-.58,.02-.66,.42-.25,1.18-.53,2.35-.81,3.52-.39,1.64-.78,3.27-1.17,4.9-.03,.11-.05,.22,.12,.24,.34,.03,.66,.17,1,.21,.19,.02,.17,0,.2-.15,.27-1.23,.57-2.46,.85-3.69,.41-1.76,.81-3.51,1.23-5.33-.3,.06-.55-.02-.76-.11Z"/><path class="cls-1" d="M68.45,72.6c-.17-1.26-.76-2.23-1.78-2.93-1.17-.81-2.5-1.17-3.9-1.35-1.63-.21-3.26-.33-4.9-.09-2.28,.34-4.25,1.25-5.7,3.08-.66,.83-1.08,1.8-1.08,2.9,0,3.8,0,7.59,0,11.39,0,1.02-.01,2.03,0,3.05,.05,3.11-.13,6.21,.1,9.32,.05,.66,.2,1.31,.58,1.88,.53,.79,1.28,1.2,2.18,1.49,1.72,.54,3.46-.34,4.34-1.71,.41-.65,.5-1.37,.52-2.09,.04-1.81,.02-3.62,0-5.43,0-.4,.07-.55,.51-.52,1.84,.09,3.65-.04,5.38-.75,1.19-.49,2.16-1.24,2.93-2.27,.7-.94,.9-2.04,.91-3.17,.03-3.6,.02-7.21,0-10.82,0-.66,.01-1.32-.07-1.98Zm-7.45,12.63c0,1.86-1.26,3.03-2.96,3.41-1.33,.3-2.41-.19-3.41-1.05-.87-.74-1.19-1.64-1.17-2.74,.03-1.7,0-3.4,0-5.1s.04-3.46-.01-5.19c-.06-1.77,1.13-3.26,2.79-3.71,1.27-.35,3.03,.29,3.81,1.38,.67,.93,.97,1.94,.96,3.09-.03,3.3-.02,6.61,0,9.91Z"/><path class="cls-1" d="M86.54,132.6c1.64-.28,3.01-1.01,3.95-2.4,.35-.52,.55-1.13,.55-1.8-.02-2.83,0-5.66-.02-8.48,0-.33,.08-.49,.41-.58,2.9-.81,5.64-2.01,8.26-3.47,.24-.14,.39-.12,.59,.08,1.92,1.94,3.85,3.88,5.79,5.8,.73,.73,1.63,1.11,2.68,1.12,1.7,.03,3.13-.63,4.31-1.79,2.7-2.65,5.36-5.34,8.03-8.02,.83-.84,1.47-1.81,1.73-2.98,.35-1.59,.18-3.03-1.1-4.26-1.95-1.87-3.83-3.81-5.74-5.72-.07-.07-.12-.15-.2-.2-.17-.11-.11-.25-.04-.35,.46-.7,.77-1.48,1.13-2.23,.95-1.95,1.64-3.99,2.24-6.07,.11-.38,.25-.43,.57-.43,2.83,0,5.66,0,8.48,0,.56,0,1.1-.13,1.56-.4,1.74-1.02,2.71-2.6,2.75-4.59,.08-3.94,.02-7.88,.03-11.82,0-.79-.1-1.54-.38-2.29-.38-1.04-.97-1.89-1.86-2.56-.76-.57-1.64-.74-2.54-.75-2.78-.02-5.56-.01-8.34,0-.26,0-.42-.04-.5-.33-.82-2.78-1.94-5.43-3.36-7.96-.17-.31-.16-.48,.11-.74,2.01-1.99,4.02-3.98,6-6,.92-.94,1.2-2.13,1.02-3.38-.21-1.52-.98-2.78-2.07-3.86-2.57-2.55-5.11-5.13-7.69-7.67-1.25-1.23-2.72-1.99-4.55-1.91-.97,.04-1.79,.36-2.47,1.04-2.08,2.08-4.16,4.16-6.23,6.24-.14,.14-.24,.3-.49,.14-1.06-.68-2.23-1.14-3.37-1.65-1.4-.62-2.85-1.1-4.31-1.54-.35-.1-.44-.21-.44-.55,.01-2.91-.02-5.82,.02-8.72,.02-1.43-.68-2.43-1.75-3.23-1.2-.91-2.58-1.24-4.07-1.24-3.51,0-7.02,0-10.53,0-1.39,0-2.72,.24-3.9,1.03-1.26,.83-2.06,1.93-2.06,3.49,0,2.78-.01,5.56,.01,8.34,0,.5-.09,.78-.64,.81-.25,.01-.5,.15-.75,.23-2.43,.74-4.75,1.75-7,2.93-.31,.16-.48,.12-.72-.12-2.07-2.09-4.16-4.16-6.23-6.24-.6-.6-1.33-.94-2.14-1.01-1.74-.16-3.28,.42-4.51,1.63-2.64,2.57-5.21,5.22-7.84,7.8-.84,.83-1.55,1.71-1.97,2.83-.62,1.64-.41,3.49,.91,4.78,1.87,1.83,3.71,3.7,5.57,5.56,.6,.6,.61,.61,.22,1.35-1.28,2.42-2.39,4.92-3.15,7.56-.1,.35-.28,.44-.64,.44-2.72-.02-5.43-.03-8.15,0-.77,0-1.54,.11-2.22,.57-1.69,1.13-2.46,2.77-2.51,4.74-.05,1.95-.01,3.91-.01,5.86s.01,3.78,0,5.67c-.01,1.38,.33,2.66,1.16,3.75,.83,1.1,1.93,1.8,3.38,1.8,2.72,0,5.43,0,8.15-.01,.35,0,.48,.12,.56,.43,.18,.67,.35,1.35,.58,2,.76,2.09,1.56,4.16,2.67,6.1,.22,.38,.12,.57-.15,.83-2.03,2.01-4.05,4.04-6.07,6.06-.59,.59-.88,1.32-.94,2.12-.14,1.8,.51,3.33,1.77,4.6,2.55,2.57,5.13,5.11,7.67,7.69,.9,.91,1.85,1.67,3.09,2.05,1.21,.36,2.38,.37,3.52-.24,.32-.17,.6-.39,.86-.65,1.95-1.96,3.91-3.91,5.87-5.86,.1-.1,.15-.32,.41-.17,1.21,.69,2.45,1.3,3.73,1.86,1.63,.71,3.29,1.32,5,1.79,.34,.1,.5,.23,.5,.64-.02,2.72,0,5.43-.02,8.15,0,1.02,.39,1.88,1.06,2.6,1.16,1.26,2.67,1.82,4.34,1.84,3.42,.04,6.83,.02,10.25,0,.72,0,1.45,.04,2.17-.08Zm-12.32-1.55c-1.21-.01-2.37-.35-3.24-1.3-.4-.44-.64-.94-.64-1.55,0-3.15,0-6.29,0-9.44,0-.3-.05-.44-.38-.53-2.74-.7-5.4-1.65-7.93-2.92-.84-.42-1.71-.82-2.48-1.37-.31-.22-.55-.22-.86,.09-2.13,2.16-4.29,4.29-6.42,6.45-.83,.84-1.76,.99-2.86,.69-1.03-.28-1.82-.9-2.54-1.62-2.46-2.44-4.91-4.88-7.35-7.35-.89-.9-1.53-1.94-1.61-3.26-.05-.83,.29-1.48,.86-2.04,2.19-2.19,4.37-4.39,6.58-6.56,.26-.26,.28-.44,.11-.74-1.31-2.25-2.36-4.61-3.16-7.09-.31-.95-.59-1.91-.84-2.88-.08-.34-.22-.41-.53-.41-3.08,0-6.16-.02-9.25,.02-1.39,.02-2.27-.91-2.71-1.93-.31-.72-.41-1.48-.4-2.28,.02-3.78-.02-7.56,.03-11.34,.02-1.3,.52-2.45,1.65-3.24,.29-.2,.61-.29,.96-.29,3.29,0,6.58,0,9.87,.01,.36,0,.51-.1,.61-.45,.44-1.7,1.01-3.37,1.69-4.99,.72-1.7,1.54-3.35,2.51-4.92,.19-.31,.1-.43-.09-.62-2.18-2.18-4.33-4.39-6.55-6.52-1.2-1.16-1.19-2.38-.59-3.77,.32-.73,.85-1.31,1.39-1.86,2.37-2.4,4.75-4.77,7.14-7.15,.82-.82,1.75-1.48,2.93-1.7,.86-.16,1.67-.04,2.3,.58,2.42,2.39,4.82,4.8,7.2,7.22,.16,.16,.15,.05,.25,0,2.49-1.36,5.04-2.56,7.76-3.39,.77-.23,1.52-.5,2.31-.65,.29-.06,.41-.19,.41-.53-.02-3.26,0-6.51-.02-9.77,0-.82,.36-1.45,.96-1.94,.86-.7,1.9-.99,2.98-1,3.76-.02,7.53-.04,11.3,0,1.31,.02,2.51,.45,3.39,1.5,.29,.34,.44,.74,.44,1.2,0,3.35,0,6.7,0,10.06,0,.35,.07,.49,.45,.59,1.86,.49,3.68,1.12,5.46,1.88,1.41,.6,2.77,1.29,4.1,2.06,.17,.1,.24,.06,.38-.08,2.32-2.33,4.63-4.67,6.97-6.98,1.04-1.02,2.25-.85,3.47-.35,.56,.23,1.03,.57,1.45,.99,2.68,2.67,5.36,5.34,8.02,8.02,.87,.88,1.39,1.95,1.34,3.22-.02,.59-.22,1.12-.65,1.55-2.29,2.29-4.58,4.58-6.88,6.87-.18,.18-.26,.29-.09,.56,1.66,2.7,2.92,5.57,3.84,8.6,.14,.47,.34,.93,.41,1.42,.05,.34,.2,.34,.46,.34,3.35,0,6.7,0,10.06,0,.17,0,.33,0,.51,.05,1.02,.33,1.51,1.15,1.88,2.06,.22,.55,.3,1.13,.3,1.73-.01,3.91,.03,7.82-.03,11.72-.02,1.29-.53,2.44-1.7,3.17-.35,.22-.72,.33-1.14,.33-3.19,0-6.39,0-9.58-.02-.4,0-.53,.13-.61,.47-.69,3.06-1.87,5.94-3.26,8.74-.12,.23-.26,.46-.39,.69-.18,.31-.53,.66-.47,.92,.06,.24,.47,.47,.71,.71,2.01,2.01,4,4.05,6.04,6.02,1.04,1,1.1,2.34,.6,3.52-.28,.67-.69,1.24-1.21,1.76-2.64,2.62-5.26,5.26-7.89,7.88-.87,.86-1.93,1.35-3.17,1.34-.61,0-1.15-.22-1.59-.66-2.31-2.32-4.62-4.63-6.92-6.93-1.08,.71-2.2,1.3-3.34,1.84-2.29,1.1-4.64,2-7.11,2.61-.28,.07-.42,.17-.42,.52,.02,3.18,0,6.35,.02,9.53,0,.99-.49,1.65-1.26,2.14-.85,.55-1.81,.77-2.83,.77-3.7,0-7.4,.03-11.1-.02Z"/><path class="cls-1" d="M73.25,141.44c.75-.54,1.48-1.09,2.26-1.67-.23-.06-.42-.1-.56-.1-.51,0-1.03-.34-1.53,.08-.54,.45-1.1,.86-1.66,1.28-1.03,.77-2.06,1.54-3.1,2.32-.01-.07-.03-.1-.03-.13,.16-1.15,.29-2.31,.49-3.46,.05-.28,.02-.58,.12-.85-.29-.07-.6-.07-.86-.15-.38-.12-.48,0-.52,.33-.14,1.13-.3,2.25-.46,3.37-.26,1.78-.47,3.57-.77,5.35-.03,.16,.03,.22,.2,.23,.37,.03,.73,.09,1.12,.14,.1-.76,.19-1.51,.3-2.27,.08-.56,.13-1.12,.76-1.42,.37-.18,.68-.48,1.05-.74,.76,1.49,1.54,2.97,2.28,4.46,.2,.41,.38,.74,.9,.74,.37,0,.73,.07,1.14,.11-.42-.77-.79-1.46-1.17-2.16-.65-1.21-1.3-2.43-1.95-3.64-.09-.16-.16-.29,.03-.43,.66-.46,1.31-.93,1.96-1.41Z"/><path class="cls-1" d="M76.99,139.73c-.11-.02-.21-.07-.31-.09-.21-.03-.34,0-.34,.28,0,.6-.04,1.19-.09,1.79-.11,1.29-.25,2.58-.37,3.87-.09,.98-.18,1.96-.29,2.93-.05,.45,.02,.55,.5,.56,.26,0,.53-.03,.8,.1,.11-1.1,.23-2.18,.32-3.27,.11-1.3,.15-2.6,.31-3.89,.06-.46,0-.93,.15-1.39,.08-.25,.07-.59-.05-.83-.08-.16-.41-.03-.62-.06Z"/></g></g></svg>