<?xml version="1.0" encoding="utf-8"?>
<!-- Generator: Adobe Illustrator 23.0.2, SVG Export Plug-In . SVG Version: 6.00 Build 0)  -->
<svg version="1.1" id="Warstwa_1" xmlns="http://www.w3.org/2000/svg" xmlns:xlink="http://www.w3.org/1999/xlink" x="0px" y="0px"
	 viewBox="0 0 51.1426773 16.5493431" width="51.1426773" height="16.5493431" style="enable-background:new 0 0 51.1426773 16.5493431;" xml:space="preserve">
<style type="text/css">
	.st0{fill:#221E20;}
</style>
<g>
	<path class="st0" d="M29.7306557,0v10.1663151c0.0107098,0.5531034-0.0488281,1.1053295-0.1771927,1.6434374
		c-0.0948753,0.400423-0.2856617,0.7717819-0.5559292,1.082099c-0.2566166,0.2787085-0.5837498,0.482933-0.9468365,0.5910969
		c-0.429966,0.1254053-0.8764057,0.1851435-1.3242168,0.1771927h-2.3332767
		c-0.4478111,0.0079708-0.8942547-0.0517673-1.3242168-0.1771927c-0.3631153-0.1081028-0.6902618-0.312335-0.9468365-0.5910969
		c-0.2699127-0.3103628-0.4602489-0.6817474-0.5545769-1.082099c-0.1285667-0.5380726-0.1881084-1.0903254-0.1771927-1.6434374V0
		h-3.2381802v10.803401c0,3.8306284,2.096117,5.745492,6.2883453,5.7445898h2.2399445
		c4.1931305,0,6.2892437-1.9148626,6.2883434-5.7445898V0H29.7306557z"/>
	<polygon class="st0" points="13.4464264,0 8.2036591,8.8975544 8.2009535,8.8934965 8.1996012,8.8975544 2.9554815,0 0,0 
		0,16.5493431 3.0731595,16.5493431 3.0731595,6.1814876 7.4705372,13.4991789 8.9313698,13.4991789 13.3287477,6.1814876 
		13.3287477,16.5493431 16.401907,16.5493431 16.401907,0 	"/>
	<path class="st0" d="M34.7204819,7.6085048v3.1962476c0,3.8297272,2.0961151,5.7445908,6.2883415,5.7445908h2.2399445
		c4.1931343,0,6.2892494-1.9148636,6.2883453-5.7445908v-0.4436598h1.6055641V7.6085048h-4.8437424v2.5578103
		c0.0113373,0.5525312-0.0472908,1.1042747-0.1744881,1.6420851c-0.0946693,0.4004974-0.2854805,0.7719049-0.5559273,1.082098
		c-0.2566566,0.2786579-0.5837746,0.482872-0.9468346,0.5910969c-0.4299545,0.1254463-0.8764076,0.1851854-1.3242188,0.1771936
		H40.961483c-0.4493446,0.0103159-0.8976555-0.0476046-1.329628-0.1717844
		c-0.3631134-0.1081018-0.6902618-0.312335-0.9468346-0.5910969c-0.2703094-0.3102846-0.4611015-0.6816568-0.5559273-1.082098
		c-0.1283646-0.5381079-0.1879044-1.0903349-0.1771927-1.6434374V7.6085048H34.7204819z"/>
	<path class="st0" d="M38.1372108,4.7341809c0.0947189-0.4004793,0.2855225-0.7718744,0.5559235-1.0820987
		c0.2566185-0.2787092,0.5837479-0.4829328,0.9468384-0.5910962c0.429966-0.1254056,0.8764076-0.1851439,1.3242188-0.1771934
		h2.3346291c0.4478073-0.0079093,0.8942413,0.0518284,1.3242188,0.1771934
		c0.36306,0.1082251,0.6901779,0.3124392,0.9468346,0.5910962c0.2700958,0.3102407,0.460453,0.6816719,0.5545731,1.0820987
		h3.3626175C49.1389923,1.5780603,47.060009,0,43.2501221,0h-2.2412987c-3.8035736,0-5.8798523,1.5780603-6.2288246,4.7341809
		H38.1372108z"/>
</g>
</svg>
