<?xml version="1.0" encoding="UTF-8"?>
<svg xmlns="http://www.w3.org/2000/svg" xmlns:xlink="http://www.w3.org/1999/xlink" width="224px" height="130px" viewBox="0 0 224 130" version="1.1">
<g id="surface1">
<path style=" stroke:none;fill-rule:nonzero;fill:rgb(100%,100%,100%);fill-opacity:1;" d="M 173.175781 33.113281 C 173.183594 33.117188 173.195312 33.136719 173.195312 33.136719 C 173.195312 33.136719 190.441406 25.542969 214.207031 18.824219 C 210.792969 17.035156 171.863281 8.449219 150.171875 6.996094 C 143.304688 5.910156 125.722656 5.523438 111.566406 5.523438 C 97.40625 5.523438 79.828125 5.910156 72.957031 6.996094 L 72.398438 7.085938 L 72.308594 7.140625 C 50.328125 8.933594 13.492188 17.085938 10.175781 18.824219 C 30.65625 24.613281 46.285156 31.050781 50.214844 32.71875 C 39.273438 49.148438 27.953125 70.109375 21.449219 86.300781 L 19.757812 90.503906 L 24.277344 90.316406 C 25.164062 90.28125 26.070312 90.261719 26.964844 90.261719 C 49.933594 90.261719 75.785156 102.933594 94.433594 123.332031 L 95.011719 123.964844 L 95.839844 124.183594 C 98.15625 124.796875 107.609375 124.859375 111.566406 124.859375 C 115.519531 124.859375 124.972656 124.796875 127.289062 124.183594 L 128.117188 123.964844 L 128.695312 123.332031 C 147.34375 102.933594 173.195312 90.261719 196.164062 90.261719 C 197.058594 90.261719 197.964844 90.28125 198.855469 90.316406 L 203.367188 90.503906 L 201.679688 86.300781 C 195.230469 70.242188 184.039062 49.488281 173.175781 33.113281 Z M 203.402344 17.199219 C 203.941406 17.21875 204.359375 17.671875 204.34375 18.210938 C 204.320312 18.746094 203.855469 19.15625 203.335938 19.148438 C 200.460938 19.046875 198.46875 19.011719 195.851562 19.039062 C 196.796875 20.351562 197.496094 21.539062 197.765625 22.085938 L 196.429688 22.378906 C 196.144531 21.800781 195.359375 20.476562 194.300781 19.054688 C 191.769531 19.09375 190.25 19.109375 187.988281 19.238281 C 188.984375 20.402344 190.546875 22.378906 191.539062 24.398438 L 190.066406 24.753906 C 189.003906 22.589844 187.210938 20.414062 186.285156 19.359375 C 183.921875 19.503906 182.464844 19.628906 180.441406 19.835938 C 181.699219 21.394531 183.925781 24.292969 184.84375 26.300781 L 183.515625 26.628906 C 182.566406 24.566406 180.089844 21.40625 178.929688 19.976562 C 176.277344 20.257812 174.652344 20.4375 172.65625 20.75 C 173.789062 22.203125 175.871094 24.992188 177.425781 27.785156 L 176.136719 28.246094 C 174.503906 25.308594 172.257812 22.34375 171.207031 21.011719 C 168.582031 21.441406 166.625 21.84375 165.410156 22.117188 C 164.972656 21.539062 164.535156 20.972656 164.105469 20.417969 C 167.261719 19.65625 182.007812 16.4375 203.402344 17.199219 Z M 53.175781 21.011719 C 52.121094 22.347656 49.875 25.3125 48.242188 28.246094 L 46.832031 27.785156 C 48.386719 24.992188 50.46875 22.203125 51.601562 20.753906 C 49.605469 20.4375 48.101562 20.265625 45.449219 19.980469 C 44.285156 21.414062 41.808594 24.570312 40.867188 26.628906 L 39.332031 26.296875 C 40.253906 24.292969 42.480469 21.398438 43.734375 19.835938 C 41.710938 19.628906 40.453125 19.507812 38.09375 19.363281 C 37.167969 20.417969 35.378906 22.59375 34.3125 24.753906 L 32.722656 24.4375 C 33.714844 22.417969 35.273438 20.445312 36.269531 19.277344 C 34.007812 19.152344 32.609375 19.097656 30.078125 19.058594 C 29.019531 20.476562 28.234375 21.800781 27.949219 22.378906 L 26.453125 22.046875 C 26.722656 21.5 27.421875 20.3125 28.367188 19 C 25.75 18.972656 23.917969 19.046875 21.046875 19.148438 C 20.503906 19.164062 20.058594 18.746094 20.039062 18.210938 C 20.019531 17.671875 20.4375 17.21875 20.972656 17.199219 C 40.511719 16.503906 54.523438 19.132812 59.214844 20.175781 C 58.777344 20.734375 58.335938 21.304688 57.890625 21.886719 C 56.707031 21.640625 55.132812 21.332031 53.175781 21.011719 Z M 198.9375 88.371094 C 198.019531 88.332031 197.085938 88.3125 196.164062 88.3125 C 172.667969 88.3125 146.265625 101.226562 127.261719 122.015625 L 127.070312 122.226562 L 126.792969 122.300781 C 125.082031 122.753906 117.519531 122.910156 111.566406 122.910156 C 105.609375 122.910156 98.046875 122.753906 96.332031 122.300781 L 96.058594 122.226562 L 95.863281 122.015625 C 76.863281 101.226562 50.460938 88.3125 26.964844 88.3125 C 26.039062 88.3125 25.109375 88.332031 24.195312 88.371094 L 22.6875 88.433594 L 23.25 87.03125 C 32.058594 65.105469 47.488281 38.539062 59.894531 22.464844 C 59.925781 22.425781 59.953125 22.390625 59.984375 22.355469 C 59.984375 22.355469 59.980469 22.355469 59.980469 22.355469 C 60.402344 21.804688 60.824219 21.273438 61.238281 20.75 C 61.257812 20.761719 61.285156 20.769531 61.304688 20.785156 C 63.558594 18.113281 65.902344 15.390625 68.019531 13.058594 C 69.824219 11.277344 71.472656 9.910156 72.914062 9.050781 L 73.074219 8.953125 L 73.257812 8.921875 C 78.828125 8.042969 93.863281 7.472656 111.566406 7.472656 C 129.265625 7.472656 144.300781 8.039062 149.871094 8.921875 L 150.054688 8.953125 L 150.214844 9.050781 C 161.949219 16.078125 187.476562 56.160156 199.878906 87.03125 L 200.441406 88.433594 Z M 198.9375 88.371094 "/>
<path style=" stroke:none;fill-rule:nonzero;fill:rgb(100%,100%,100%);fill-opacity:1;" d="M 121.285156 89.339844 L 120.394531 86.8125 C 120.714844 81.9375 122.839844 71.84375 125.613281 65.796875 C 129.230469 71.085938 135.425781 71.6875 138.035156 71.6875 C 139.984375 71.6875 141.929688 71.378906 143.507812 70.820312 C 143.679688 70.757812 143.855469 70.691406 144.03125 70.625 L 145.988281 75.566406 L 149.636719 74.113281 L 147.546875 68.835938 C 153.171875 65.335938 158.5625 58.738281 157.335938 50.332031 L 157.207031 49.453125 L 156.355469 49.238281 C 155.460938 49.015625 154.320312 48.902344 152.960938 48.902344 C 145.179688 48.902344 128.859375 52.847656 124.445312 62.34375 C 120.710938 68.566406 118.082031 81.347656 117.765625 86.816406 C 114.9375 87.574219 111.671875 87.839844 110.910156 87.871094 C 110.207031 87.839844 106.957031 87.570312 104.132812 86.789062 C 103.691406 81.441406 100.328125 67.664062 96.410156 61.136719 L 96.320312 60.988281 L 96.167969 60.902344 C 96.003906 60.808594 79.546875 51.363281 70.757812 48.101562 L 69.238281 47.535156 L 69.921875 49.011719 C 71.042969 51.417969 77.273438 57.121094 81.761719 59.90625 L 76.324219 69.867188 L 79.769531 71.757812 L 85.277344 61.664062 C 87.679688 62.597656 90.210938 63.109375 92.472656 63.109375 C 93.160156 63.109375 93.8125 63.0625 94.421875 62.96875 C 97.945312 69.226562 101.167969 82.449219 101.515625 87.101562 L 100.808594 89.109375 L 96.929688 89.613281 C 95.730469 87.699219 91.386719 81.863281 81.882812 79.78125 C 81.28125 78.820312 79.570312 76.121094 78.546875 74.832031 L 78.441406 74.699219 L 78.226562 74.5625 L 78.140625 74.527344 C 69.726562 71.140625 56.648438 68.664062 47.992188 67.027344 L 46.953125 66.828125 C 50.503906 59.199219 60.210938 40.988281 64.570312 36.394531 C 73.273438 36.503906 85.660156 40.148438 88.480469 41.011719 L 88.632812 44.261719 L 103.445312 53.144531 L 105.972656 44.960938 L 98.5 38.800781 L 98.175781 33.574219 L 97.808594 33.296875 C 97.425781 33.015625 88.558594 26.546875 73.101562 21.351562 C 76.53125 15.824219 81.738281 10.242188 81.96875 9.996094 L 82.183594 9.769531 C 89.59375 9.351562 100.214844 9.113281 111.570312 9.113281 C 122.230469 9.113281 132.386719 9.328125 139.703125 9.703125 L 139.96875 9.988281 C 140.207031 10.242188 145.414062 15.820312 148.84375 21.351562 C 133.441406 26.527344 124.527344 33.011719 124.148438 33.289062 L 123.769531 33.574219 L 123.445312 38.800781 L 115.96875 44.960938 L 118.5 53.144531 L 133.308594 44.261719 L 133.464844 41.011719 C 136.285156 40.148438 148.671875 36.503906 157.375 36.390625 C 161.738281 40.996094 171.453125 59.226562 174.996094 66.84375 C 164.925781 69.023438 149.304688 75.171875 144.65625 77.042969 L 144.488281 77.113281 L 144.300781 77.28125 C 142.191406 79.871094 140.550781 84.585938 140.070312 86.066406 L 127.75 91.90625 Z M 121.285156 89.339844 "/>
<path style=" stroke:none;fill-rule:nonzero;fill:rgb(100%,100%,100%);fill-opacity:1;" d="M 150.816406 22.097656 L 150.433594 22.21875 C 135.152344 27.179688 126.171875 33.460938 125.046875 34.269531 L 124.722656 39.457031 L 117.488281 45.421875 L 119.265625 51.15625 L 132.03125 43.496094 L 132.195312 40.03125 L 132.410156 39.960938 C 132.5625 39.914062 147.644531 35.074219 157.785156 35.074219 L 157.917969 35.074219 L 158.011719 35.164062 C 162.9375 39.933594 173.960938 61.242188 176.71875 67.4375 L 176.886719 67.816406 L 176.484375 67.890625 C 166.695312 69.765625 150.183594 76.242188 145.226562 78.242188 C 142.996094 81.027344 141.214844 86.820312 141.195312 86.878906 L 141.15625 87.015625 L 127.800781 93.347656 L 120.246094 90.347656 C 119.074219 90.417969 116.699219 90.914062 115.570312 93.667969 C 114.332031 96.699219 112.960938 98.128906 111.914062 98.671875 L 111.914062 106.308594 C 112.222656 106.796875 113.285156 108.25 115.625 109.664062 C 117.746094 110.941406 125.707031 111.644531 127.136719 110.679688 C 128.0625 110.054688 130.261719 107.847656 129.359375 105.179688 C 129.09375 104.390625 129.351562 103.636719 130.039062 103.207031 C 131.269531 102.4375 134 102.851562 134.847656 103.707031 L 133.476562 105.085938 C 133.15625 104.851562 131.867188 104.664062 131.277344 104.789062 C 132.25 108.121094 130.011719 111.085938 128.222656 112.296875 C 127.421875 112.839844 125.828125 113.058594 123.992188 113.058594 C 120.515625 113.058594 116.167969 112.265625 114.621094 111.335938 C 112.515625 110.0625 111.285156 108.734375 110.648438 107.890625 C 109.910156 108.320312 108.652344 109.007812 106.707031 109.957031 C 105.964844 110.316406 105.109375 110.476562 104.183594 110.476562 C 102.476562 110.476562 100.519531 109.917969 98.570312 109.054688 C 98.296875 110.839844 98.539062 114.035156 98.9375 117.464844 C 96.574219 115.199219 96.277344 110.382812 96.289062 107.902344 C 93.253906 106.1875 90.472656 103.914062 88.960938 102.023438 C 87.550781 100.25 87.496094 96.402344 88.769531 92.621094 C 87.867188 92.914062 86.609375 93.523438 86.316406 93.800781 L 84.941406 92.421875 C 85.476562 91.886719 89.109375 89.847656 90.472656 90.746094 C 90.898438 91.023438 91.234375 91.613281 90.910156 92.433594 C 89.457031 96.113281 89.554688 99.640625 90.484375 100.804688 C 94.015625 105.230469 102.566406 109.804688 105.863281 108.199219 C 108.046875 107.140625 109.355469 106.398438 109.972656 106.03125 L 109.972656 98.671875 C 108.925781 98.128906 107.554688 96.699219 106.3125 93.667969 C 104.976562 90.402344 101.964844 90.347656 101.230469 90.386719 L 96.222656 91.035156 L 96.121094 90.828125 C 96.082031 90.753906 92.25 83.242188 81.207031 80.984375 L 81.070312 80.957031 L 80.996094 80.839844 C 80.972656 80.804688 78.777344 77.261719 77.574219 75.722656 C 69.296875 72.40625 56.339844 69.949219 47.753906 68.324219 L 45.066406 67.816406 L 45.234375 67.4375 C 47.992188 61.246094 59.015625 39.933594 63.941406 35.164062 L 64.035156 35.074219 L 64.164062 35.074219 C 74.308594 35.074219 89.390625 39.914062 89.542969 39.964844 L 89.753906 40.03125 L 89.917969 43.496094 L 102.6875 51.15625 L 104.460938 45.425781 L 97.230469 39.460938 L 96.90625 34.273438 C 95.777344 33.460938 86.792969 27.175781 71.519531 22.222656 L 71.136719 22.097656 L 71.335938 21.75 C 73.726562 17.613281 77.257812 13.34375 79.332031 10.972656 C 77.480469 11.128906 75.699219 11.304688 74.054688 11.5 C 56.546875 28.03125 40.167969 53.671875 26.554688 85.832031 C 30.316406 85.886719 34.042969 86.214844 37.738281 86.761719 C 38.414062 84.796875 39.621094 81.539062 40.808594 79.585938 C 42.320312 79.714844 45.347656 80.25 46.941406 80.632812 C 45.882812 82.796875 44.898438 85.703125 44.175781 87.960938 C 45.113281 88.171875 46.042969 88.410156 46.972656 88.65625 C 47.636719 86.714844 48.878906 83.308594 50.101562 81.300781 C 51.617188 81.429688 54.433594 82.144531 56.234375 82.578125 C 55.082031 84.933594 53.882812 88.179688 53.089844 90.5 C 68.519531 95.792969 83.296875 105.558594 97.25 119.773438 C 100.960938 120.140625 106.105469 120.347656 111.570312 120.347656 C 117.03125 120.347656 122.179688 120.140625 125.886719 119.773438 C 139.769531 105.632812 154.464844 95.890625 169.8125 90.578125 C 169.019531 88.25 167.808594 84.960938 166.640625 82.578125 C 168.445312 82.144531 171.261719 81.429688 172.773438 81.300781 C 174.011719 83.332031 175.269531 86.789062 175.925781 88.722656 C 176.910156 88.460938 177.894531 88.203125 178.882812 87.976562 C 178.164062 85.71875 177.179688 82.804688 176.117188 80.632812 C 177.707031 80.253906 180.734375 79.714844 182.246094 79.585938 C 183.441406 81.542969 184.648438 84.8125 185.320312 86.777344 C 189.042969 86.222656 192.792969 85.886719 196.582031 85.835938 C 183.136719 54.101562 166.347656 27.820312 149.082031 11.5 C 147.054688 11.261719 144.863281 11.046875 142.53125 10.863281 C 144.585938 13.210938 148.195312 17.554688 150.621094 21.753906 Z M 150.816406 22.097656 "/>
</g>
</svg>
